<!-- icons.svg -->
<svg xmlns="http://www.w3.org/2000/svg" style="display: none;">
  <symbol id="icon-heading" viewBox="0 0 24 24">
    <rect x="3" y="5" width="18" height="2" />
    <rect x="3" y="11" width="18" height="2" />
    <rect x="3" y="17" width="12" height="2" />
  </symbol>
  
  <symbol id="icon-paragraph" viewBox="0 0 24 24">
    <rect x="3" y="5" width="18" height="2" />
    <rect x="3" y="9" width="18" height="2" />
    <rect x="3" y="13" width="18" height="2" />
    <rect x="3" y="17" width="18" height="2" />
  </symbol>
  
  <symbol id="icon-link" viewBox="0 0 24 24">
    <path d="M10 13a5 5 0 0 1 0-6L14 3a5 5 0 1 1 7 7l-4 4a5 5 0 0 1-7 0z"/>
    <path d="M14 11a5 5 0 0 1 0 6l-4 4a5 5 0 1 1-7-7l4-4a5 5 0 0 1 7 0z"/>
  </symbol>
  
  <symbol id="icon-button" viewBox="0 0 24 24">
    <rect x="3" y="8" width="18" height="8" rx="4" />
  </symbol>
  <symbol id="icon-lists" viewBox="0 0 24 24">
  <circle cx="5" cy="7" r="2"/>
  <circle cx="5" cy="12" r="2"/>
  <circle cx="5" cy="17" r="2"/>
  <rect x="10" y="6" width="10" height="2"/>
  <rect x="10" y="11" width="10" height="2"/>
  <rect x="10" y="16" width="10" height="2"/>
  </symbol>
<symbol id="icon-ol" viewBox="0 0 24 24">
  <text x="3" y="9" font-family="Arial" font-size="12">1</text>
  <text x="3" y="14" font-family="Arial" font-size="12">2</text>
  <text x="3" y="19" font-family="Arial" font-size="12">3</text>
  <rect x="10" y="6" width="10" height="2"/>
  <rect x="10" y="11" width="10" height="2"/>
  <rect x="10" y="16" width="10" height="2"/>
</symbol>
<symbol id="icon-quote" viewBox="0 0 24 24">
  <path d="M5.455 7a2.5 2.5 0 0 0-2.5 2.5v7h5v-7h-2.5V7zm9 0a2.5 2.5 0 0 0-2.5 2.5v7h5v-7h-2.5V7z"/>
</symbol>
<symbol id="icon-text" viewBox="0 0 24 24">
   <rect x="3" y="10" width="18" height="4"/>
</symbol>
<symbol id="icon-code" viewBox="0 0 24 24">
  <path d="M8.4 19l-6-6 6-6 1.2 1.4L4.8 12l4.8 4.6-1.2 1.4zm7.2 0l-1.2-1.4L19.2 12l-4.8-4.6 1.2-1.4 6 6-6 6z"/>
</symbol>


  
  <!-- Додайте інші іконки за потребою -->
</svg>
